<svg class="Acura_SVG" viewBox="0 0 115 50" xmlns="http://www.w3.org/2000/svg"><defs></defs><g><path d="M1668.48,5019.56h3.37l7.52,12.43h-3.59l-5.62-9.47-2.98,5.02h4.83l1.46,2.35h-7.56l-1.36,2.1H1661Zm66.62,0h3.37l7.53,12.43h-3.59l-5.63-9.47-2.98,5.02h4.84l1.46,2.35h-7.57l-1.36,2.1h-3.55Zm-55.95,6.21v1.65c0.08,3.26,1.91,4.64,4.75,4.57h9.39v-2.55h-9.35c-1.57.04-1.68-1.05-1.72-2.11v-3.18c0.04-.98.15-2.08,1.72-2.04h9.35v-2.55h-9.39c-2.84-.07-4.67,1.33-4.75,4.57v1.64Zm35.62,6.22h-3.03v-12.43h11.37c3.97,0,4.98,5.26,2.21,7.07a3.268,3.268,0,0,1,1.46,2.47c0.07,0.49.09,2.89,0.09,2.89h-2.99l-0.1-2.55a1.8,1.8,0,0,0-1.87-1.83h-5.78l-0.6-2.66h6.78a1.378,1.378,0,1,0,0-2.73h-7.54v9.77Zm-12.36,0h2.66c3.25-.07,4.64-1.9,4.56-4.75v-7.68h-2.99v8.3c0.04,1.57-1.05,1.68-2.11,1.72h-4.34c-0.98-.04-2.08-0.15-2.04-1.72v-8.3h-3.07v7.7c-0.08,2.84,1.33,4.66,4.56,4.73h2.77Zm14.19-33.32c-0.25-4.64-1.84-8.05-4.01-9.91-2.33-2.01-6.7-2.77-10.09-2.76-3.38-.01-7.75.75-10.08,2.76-2.17,1.86-3.76,5.27-4,9.91-0.23,4.35.73,9.12,3.2,11.81,2.39,2.65,7.18,3.49,10.88,3.48h0.01c3.7,0.01,8.49-.83,10.88-3.48C1715.86,5007.79,1716.82,5003.02,1716.6,4998.67Zm-14.89-11.49c0.48-.03.58-0.02,0.79-0.02s0.31-.01.79,0.02l0.01,10.16h-1.6Zm-11.4,15.77c-0.15-1.75-.67-8.11,1.86-11.75a8.657,8.657,0,0,1,4.27-3.19,18.523,18.523,0,0,1,4.9-.82c-1.05,2.55-3.18,8.03-3.6,9.25a22.421,22.421,0,0,0-1.37,5.02c-0.27,2.21-.76,7.71-0.89,10.1C1692.49,5010.12,1690.69,5007.42,1690.31,5002.95Zm18.91,8.75a20.927,20.927,0,0,1-13.45,0h0a131.868,131.868,0,0,1,5.79-12.83h1.87a129.836,129.836,0,0,1,5.8,12.83h-0.01Zm5.47-8.75c-0.39,4.47-2.18,7.17-5.17,8.61-0.13-2.39-.62-7.89-0.89-10.1a22.327,22.327,0,0,0-1.38-5.02c-0.41-1.22-2.55-6.7-3.59-9.25a18.579,18.579,0,0,1,4.9.82,8.657,8.657,0,0,1,4.27,3.19C1715.35,4994.84,1714.84,5001.2,1714.69,5002.95Z" transform="translate(-1661 -4986)"></path></g></svg>