<svg class="Honda_Jet_SVG" viewBox="0 0 80 60" xmlns="http://www.w3.org/2000/svg"> <defs> </defs> <g> <path d="M2150.33,5030.19s8.31-13.5,10.31-14.16l0.01-.1a4.186,4.186,0,0,0 -2.36.67c-1.6.92-4.09,4.37-5.91,7.12h-4.68c0.4-.66,3.37-5.33,3.37 -5.33h-6.23l-0.26.41h3.61c0.23-.01.55,0.11,0.28,0.55,0,0-7,11.07 -8.38,12.25a2.429,2.429,0,0,1-1.09.61v0.13a4.1,4.1,0,0,0,2.3 -.67c2.21-1.33,4.59-4.96,6.17-7.57h4.66c-0.58.89-1.13,1.78-1.62, 2.57a16.3,16.3,0,0,1-2.34,3.31,3.935,3.935,0,0,1-2.1.77l -0.22.43h5.96l0.22-.43-0.65-.03C2150.13,5030.65,2150.25,5030.36, 2150.33,5030.19Zm68.64-9.99,0.03-.08c-1.92-.24-4.12,2.1-5.26,3.48h -1.75l-0.36.5h1.66c-0.52.73-1,1.38-1.45,1.97a33.2,33.2,0,0,1-2.61, 2.47,7.664,7.664,0,0,1-4.28,2.04,1.489,1.489,0,0,1-1.62-1.63c0-.1.01 -0.21,0.02-0.33a3.285,3.285,0,0,1,.18-0.7c0.05-.01.17-0.03,0.17 -0.03,1.65-.34,6.04-1.25,6.28-3.24a0.97,0.97,0,0,0,.01-0.17,1,1,0,0, 0-.25-0.7,2.068,2.068,0,0,0-1.58-.52c-2.64,0-6.65,2.79-6.98, 5.54a2.183,2.183,0,0,0,2.34,2.62,9.04,9.04,0,0,0,5.61-2.29c0.48 -.39.93-0.79,1.37-1.21a4.8,4.8,0,0,0-.86,1.94,1.7,1.7,0,0,0-.01.22, 1.1,1.1,0,0,0,.27.76,1.822,1.822,0,0,0,1.32.45,6.012,6.012,0,0,0, 3.14-1.36l-0.26-.21a6.225,6.225,0,0,1-2.26,1.07,0.4,0.4,0,0,1-.44 -0.44,0.34,0.34,0,0,1,.01-0.1c0.08-.67.83-1.69,2.83-4.42,0,0,1.23 -1.67,1.27-1.73h2.71l0.31-.5h-2.72a27.734,27.734,0,0,1,2.21-2.75A2, 2,0,0,1,2218.97,5020.2Zm-11.17,3.45a0.474,0.474,0,0,1,.36.12,0.4, 0.4,0,0,1,.08.26v0.09c-0.16,1.32-2.37,2.96-4.58,3.44C2204.27,5026.1, 2206.51,5023.65,2207.8,5023.65Zm-3.88-3.1c0.52-.71,1.05-1.84,1.74 -1.99l-0.03-.15h-6.59l-0.26.41h3.61c0.23-.01.55,0.12,0.28,0.56,0,0 -3.86,5.88-4.04,6.19-0.01.02-.04,0.06-0.08,0.12-0.71.78-2.04,2.2 -2.91,2.98-1.42,1.29-2.75,2.12-3.38,2.12a0.452,0.452,0,0,1-.33-0.11, 0.482,0.482,0,0,1-.07-0.34c0.12-.99,1.74-3.02,3.05-4.66,0.64-.8,1.2 -1.5,1.51-1.98l0.07-.11-2.36.14s-0.46.6-.57,0.76a1.6,1.6,0,0,0-1.71 -1.23c-2.57,0-6.03,2.83-6.63,5.42-0.03.02-.43,0.39-0.43,0.39-1.49, 1.36-2.57,1.84-3.1,1.84a0.3,0.3,0,0,1-.24-0.09,0.4,0.4,0,0,1-.07 -0.34c0.13-1.15.65-1.84,2.81-4.76,0,0,4.62-6.13,5.57-6.28l0.01 -.09a3.778,3.778,0,0,0-2.45.7,17.509,17.509,0,0,0-3.79,3.86c-0.27.36 -.28,0.38-0.39,0.54a1.66,1.66,0,0,0-1.72-1.19c-2.05,0-4.67,1.68 -5.96,3.81-0.58.59-1.14,1.14-1.65,1.62-2.06,1.95-2.84,2.1-3.02, 2.1a0.44,0.44,0,0,1-.34-0.12,0.469,0.469,0,0,1-.08-0.37,6.154,6.154, 0,0,1,1.64-2.51c0.89-1.04,1.82-2.11,1.94-3.12a1.223,1.223,0,0,0-.27 -1.01,1.34,1.34,0,0,0-1.04-.4c-1.65,0-3.61,1.72-4.87,3.02l2.32-2.76 -2.39.09s-2.78,2.3-3.86,3.04a16.3,16.3,0,0,1-1.58.96c0.27-.44,1.47 -2.32.28-3.61a2.441,2.441,0,0,0-1.85-.74c-2.81,0-6.55,2.6-6.91, 5.62a2.1,2.1,0,0,0,2.31,2.54,7.377,7.377,0,0,0,5.81-3.25,16.372, 16.372,0,0,0,2.3-1.39c0.8-.56,1.94-1.44,2.8-2.17-0.83,1.16-4.84,6.64 -4.84,6.64l0.13-.01,2.02-.06,0.02-.03c1.32-2.12,5.76-7.25,7.39 -7.25a0.478,0.478,0,0,1,.37.13,0.422,0.422,0,0,1,.09.32,5.9,5.9,0,0, 1-1.5,2.19c-0.91,1.03-1.93,2.19-2.06,3.24a1.357,1.357,0,0,0,.3,1.08, 1.493,1.493,0,0,0,1.15.43c1.07,0,2.02-.53,3.74-2.12,0.37-.34.76 -0.73,1.19-1.16-0.14.36-.7,1.89,0.1,2.8a1.591,1.591,0,0,0,1.25.48, 4.907,4.907,0,0,0,3.35-1.52,1.523,1.523,0,0,0-.06.42,1.317,1.317,0, 0,0,.22.74,1.421,1.421,0,0,0,1.2.49c1.36,0,2.62-.87,4.07-2.18,0,0.09 -.01.19-0.01,0.28a1.683,1.683,0,0,0,1.68,1.9,5.177,5.177,0,0,0,3.34 -1.62c-0.03.12-.05,0.25-0.07,0.35,0,0.06-.01.11-0.01,0.16a1.028, 1.028,0,0,0,.26.7,1.387,1.387,0,0,0,1.08.41c1.16,0,2.51-.73,4.25 -2.3,0.56-.5,1.22-1.17,1.99-1.99-1.91,2.98-5.98,9.21-7.04, 10.13a2.577,2.577,0,0,1-1.1.6v0.12c1.26,0.12,2.55-.56,4.18 -2.21C2196.28,5033.15,2202.88,5021.96,2203.92,5020.55Zm-42.64,4.13c -0.2,1.68-2.88,6.36-5.01,6.36a0.74,0.74,0,0,1-.57-0.21,1.032,1.032, 0,0,1-.16-0.83c0.2-1.68,2.88-6.35,5.01-6.35a0.774,0.774,0,0,1, .57.2A1.042,1.042,0,0,1,2161.28,5024.68Zm16.37,5.77a0.783,0.783,0,0, 1-.6-0.23,1.294,1.294,0,0,1-.21-0.99c0.25-2.07,2.91-5.58,4.61 -5.58a0.9,0.9,0,0,1,.72.26,1.032,1.032,0,0,1,.19.83C2182.13,5026.58, 2179.42,5030.45,2177.65,5030.45Zm10.43,0.13c-1.03.13-.82-1.28-0.8 -1.43,0.2-1.64,2.79-5.5,4.72-5.5a0.869,0.869,0,0,1,.68.22,0.837, 0.837,0,0,1,.17.58,1.8,1.8,0,0,1-.03.31C2192.65,5026.24,2189.85, 5030.45,2188.08,5030.58Zm9.89-47.95c-3.02,1.75-6.46,6.69-9.9,11.89h -3.55c2.88-4.46,6.48-10.03,7.4-11.47,0.92-1.38,1.99-3.48,3.29-3.76l -0.05-.29h-12.47l-0.48.77s6.63,0.01,6.82,0c0.43,0,1.04.23,0.52,1.06l -8.87,13.69h-3.08c0.76-1.25,6.38-10.09,6.38-10.09h-11.79l -0.49.77s6.64,0.01,6.83,0c0.42-.01,1.04.23,0.52,1.06,0,0-13.12,20.85 -15.84,23.17a4.6,4.6,0,0,1-2.07,1.14v0.25a7.582,7.582,0,0,0,4.35 -1.27c4.19-2.52,8.68-9.38,11.67-14.31h3.05l-0.17.26c-3.61,5.63 -11.31,17.41-13.32,19.15a4.647,4.647,0,0,1-2.07,1.14v0.24a7.638, 7.638,0,0,0,4.35-1.26c4.19-2.52,8.68-9.39,11.67-14.31,0,0,1.48-2.29, 3.38-5.22h3.54c-1.09,1.68-2.13,3.37-3.06,4.86-1.99,3.22-3.07,5.32 -4.41,6.6a3.815,3.815,0,0,1-2.82,1.12l-0.43.8h11.04l0.42-.8-2.15 -.06c-2.37-.13-2.13-0.68-1.98-1.01,0,0,5.1-8.69,10.01-15.74,6.36 -9.13,7.59-9.35,8.22-9.46l0.01-.18A7.833,7.833,0,0,0,2197.97,4982.63Z" transform="translate(-2139 -4979)"></path> </g> </svg>