<svg class="Honda_Power_Equipment_SVG" viewBox="0 0 124 33.7" xmlns="http://www.w3.org/2000/svg"> <defs> </defs> <g> <path d="M24.3,2.3l1.5,0.2c0.6,0,0.7,0.6,0.7,0.9v1.7h-6.7V3.4c0-0.3,0.1-0.9,0.7-1L22,2.2V0.8h-8.7v1.5l1.5,0.2 c0.7,0.1,0.7,0.6,0.7,1v5.7c0,0.3-0.1,0.9-0.7,1l-1.5,0.2v1.5H22v-1.7l-1.5-0.1c-0.7-0.1-0.7-0.6-0.7-1V7.4h6.7v1.7 c0,0.3-0.1,0.9-0.7,1l-1.5,0.2v1.5H33v-1.6L31.5,10c-0.7-0.1-0.7-0.6-0.7-1V3.4c0-0.3,0.1-0.9,0.7-1L33,2.2V0.8h-8.7V2.3z"></path> <path d="M82.6,0.8H71.8v1.5l1.3,0.1c0.5,0.1,0.8,0.3,0.8,0.9v5.8c0,0.3-0.1,0.9-0.7,1l-1.5,0.2v1.5h10.9 c3.9,0,7.1-1.6,7.1-5.5C89.8,2.4,86.5,0.8,82.6,0.8z M81.8,9.6h-3.7V2.9h3.7c2.2,0,2.9,1,2.9,3.4C84.7,8.6,84,9.6,81.8,9.6z"></path> <path d="M108.1,10.1c-0.7-0.1-0.9-0.5-1.1-0.9c-5-7.7-5-7.7-5-7.7c-0.4-0.6-0.6-0.7-1.2-0.7h-8.3v1.5l2,0.2 c0.3,0,0.7,0.4,0.3,0.9l-3.7,6.1c-0.2,0.2-0.3,0.5-0.8,0.6l-1.5,0.2v1.5h7v-1.6l-1.2-0.1c-0.5-0.1-0.8-0.4-0.5-0.8l0.6-0.9h6.7 l0.5,0.8c0.4,0.7-0.1,0.9-0.6,1l-1.2,0.1v1.5h9.5v-1.6L108.1,10.1z M95.9,6.4L98,3l2.2,3.4H95.9z"></path> <path d="M64,2.3l1.5,0.2c0.7,0.1,0.7,0.6,0.7,1V9l-5.8-7.6c-0.3-0.3-0.5-0.5-1.1-0.5c-0.4,0-7.5,0-7.5,0v1.5l1.5,0.2 C54,2.7,54,3.2,54,3.6v5.7c0,0.3-0.1,0.9-0.7,1l-1.5,0.2V12h7v-1.8L57.3,10c-0.7-0.1-0.7-0.6-0.7-1V3.6l5.8,7.6 c0.3,0.4,0.5,0.5,1.1,0.5h0.1c0.3,0,1.4,0,5.3,0V3.4c0-0.3,0.1-0.9,0.7-1l1.5-0.2V0.8h-7L64,2.3L64,2.3z"></path> <path d="M42.4,0.4c-7.1,0-8.9,3.1-8.9,5.9c0,2.7,1.8,5.8,8.9,5.8s8.9-3.1,8.9-5.8C51.4,3.5,49.5,0.4,42.4,0.4z M42.4,10c-2.8,0-3.9-1.2-3.9-3.8s1.1-3.8,3.9-3.8c2.8,0,3.9,1.2,3.9,3.8C46.3,8.9,45.2,10,42.4,10z"></path> </g> <g> <path d="M0.6,25.5h2.5c0.4,0,0.9,0,1.2,0.1s0.7,0.2,0.9,0.4c0.3,0.2,0.5,0.4,0.6,0.7c0.1,0.3,0.2,0.6,0.2,1 c0,0.4-0.1,0.8-0.2,1.1c-0.2,0.3-0.4,0.5-0.7,0.7s-0.6,0.3-1,0.4c-0.4,0.1-0.8,0.1-1.2,0.1H2v3.2H0.6V25.5z M3,28.9 c0.2,0,0.4,0,0.6,0c0.2,0,0.4-0.1,0.6-0.2c0.2-0.1,0.3-0.2,0.4-0.3s0.1-0.3,0.1-0.6c0-0.2,0-0.4-0.1-0.6c-0.1-0.1-0.2-0.3-0.4-0.3 s-0.3-0.1-0.5-0.2c-0.2,0-0.4,0-0.6,0H2v2.2H3z"></path> <path d="M7.9,29.4c0-0.6,0.1-1.2,0.3-1.7s0.5-0.9,0.9-1.3c0.4-0.4,0.8-0.6,1.3-0.8c0.5-0.2,1.1-0.3,1.7-0.3 c0.6,0,1.2,0.1,1.7,0.3c0.5,0.2,1,0.5,1.3,0.8c0.4,0.4,0.7,0.8,0.9,1.3s0.3,1.1,0.3,1.7c0,0.6-0.1,1.2-0.3,1.7 c-0.2,0.5-0.5,0.9-0.9,1.3c-0.4,0.4-0.8,0.6-1.3,0.8s-1.1,0.3-1.7,0.3c-0.6,0-1.2-0.1-1.7-0.3s-0.9-0.5-1.3-0.8 c-0.4-0.4-0.7-0.8-0.9-1.3C8.1,30.6,7.9,30,7.9,29.4z M9.5,29.4c0,0.4,0.1,0.8,0.2,1.1c0.1,0.3,0.3,0.7,0.5,0.9 c0.2,0.3,0.5,0.5,0.8,0.6c0.3,0.1,0.7,0.2,1.1,0.2s0.8-0.1,1.1-0.2c0.3-0.1,0.6-0.3,0.9-0.6c0.2-0.3,0.4-0.6,0.5-0.9 c0.1-0.3,0.2-0.7,0.2-1.1c0-0.4-0.1-0.8-0.2-1.1c-0.1-0.3-0.3-0.6-0.5-0.9c-0.2-0.3-0.5-0.5-0.8-0.6s-0.7-0.2-1.1-0.2 s-0.8,0.1-1.1,0.2s-0.6,0.3-0.8,0.6c-0.2,0.3-0.4,0.6-0.5,0.9C9.5,28.6,9.5,29,9.5,29.4z"></path> <path d="M17.9,25.5h1.5l1.5,5.7h0l1.7-5.7h1.4l1.7,5.7h0l1.5-5.7h1.5l-2.3,7.8h-1.3l-1.8-5.8h0l-1.8,5.8h-1.3 L17.9,25.5z"></path> <path d="M30.7,25.5h5.2v1.2h-3.8v2h3.6v1.2h-3.6v2.2h4v1.2h-5.4V25.5z"></path> <path d="M38.4,25.5h2.7c0.4,0,0.7,0,1.1,0.1c0.3,0.1,0.7,0.2,0.9,0.4s0.5,0.4,0.6,0.7c0.2,0.3,0.2,0.6,0.2,1 c0,0.6-0.2,1-0.5,1.4c-0.3,0.4-0.8,0.6-1.3,0.7l2.1,3.5h-1.7L40.8,30h-1v3.3h-1.4V25.5z M40.9,28.9c0.2,0,0.4,0,0.6,0 c0.2,0,0.4-0.1,0.5-0.2c0.2-0.1,0.3-0.2,0.4-0.3c0.1-0.2,0.2-0.3,0.2-0.6c0-0.2,0-0.4-0.1-0.5c-0.1-0.1-0.2-0.2-0.4-0.3 c-0.1-0.1-0.3-0.1-0.5-0.2s-0.4,0-0.5,0h-1.3v2.2H40.9z"></path> <path d="M50,25.5h5.2v1.2h-3.8v2H55v1.2h-3.6v2.2h4v1.2H50V25.5z"></path> <path d="M66.1,33.3h-4.7c-0.6,0-1.2-0.1-1.7-0.3s-0.9-0.4-1.3-0.8c-0.4-0.3-0.6-0.8-0.8-1.3c-0.2-0.5-0.3-1.1-0.3-1.7 c0-0.6,0.1-1.1,0.3-1.6c0.2-0.5,0.5-0.9,0.9-1.3s0.8-0.6,1.3-0.8s1.1-0.3,1.7-0.3c0.6,0,1.1,0.1,1.6,0.3c0.5,0.2,0.9,0.5,1.3,0.8 s0.7,0.8,0.9,1.3c0.2,0.5,0.3,1,0.3,1.6c0,0.4,0,0.7-0.1,1c-0.1,0.3-0.2,0.6-0.3,0.8c-0.1,0.2-0.3,0.4-0.4,0.6s-0.3,0.3-0.5,0.5v0 h1.9V33.3z M61.5,26.6c-0.4,0-0.7,0.1-1.1,0.2c-0.3,0.1-0.6,0.3-0.8,0.6c-0.2,0.2-0.4,0.5-0.6,0.9c-0.1,0.3-0.2,0.7-0.2,1.1 c0,0.4,0.1,0.8,0.2,1.1c0.1,0.3,0.3,0.6,0.5,0.9c0.2,0.2,0.5,0.4,0.8,0.6s0.7,0.2,1.1,0.2c0.4,0,0.7-0.1,1.1-0.2 c0.3-0.1,0.6-0.3,0.8-0.6c0.2-0.2,0.4-0.5,0.5-0.9s0.2-0.7,0.2-1.1c0-0.4-0.1-0.8-0.2-1.1c-0.1-0.3-0.3-0.6-0.5-0.9 c-0.2-0.2-0.5-0.4-0.8-0.6C62.2,26.7,61.8,26.6,61.5,26.6z"></path> <path d="M74.3,30.5c0,0.5-0.1,0.9-0.2,1.3c-0.2,0.4-0.4,0.7-0.7,1s-0.6,0.5-1,0.6c-0.4,0.1-0.8,0.2-1.2,0.2 s-0.9-0.1-1.2-0.2c-0.4-0.1-0.7-0.3-1-0.6s-0.5-0.6-0.7-1c-0.2-0.4-0.2-0.8-0.2-1.3v-4.9h1.4v4.9c0,0.2,0,0.5,0.1,0.7 c0.1,0.2,0.2,0.4,0.3,0.6c0.1,0.2,0.3,0.3,0.5,0.4s0.5,0.2,0.8,0.2c0.3,0,0.6-0.1,0.8-0.2s0.4-0.3,0.5-0.4c0.1-0.2,0.2-0.4,0.3-0.6 s0.1-0.4,0.1-0.7v-4.9h1.4V30.5z"></path> <path d="M76.9,25.5h1.4v7.8h-1.4V25.5z"></path> <path d="M81,25.5h2.5c0.4,0,0.9,0,1.2,0.1s0.7,0.2,0.9,0.4c0.3,0.2,0.5,0.4,0.6,0.7c0.1,0.3,0.2,0.6,0.2,1 c0,0.4-0.1,0.8-0.2,1.1c-0.2,0.3-0.4,0.5-0.7,0.7c-0.3,0.2-0.6,0.3-1,0.4c-0.4,0.1-0.8,0.1-1.2,0.1h-1.1v3.2H81V25.5z M83.4,28.9 c0.2,0,0.4,0,0.6,0c0.2,0,0.4-0.1,0.6-0.2c0.2-0.1,0.3-0.2,0.4-0.3c0.1-0.1,0.1-0.3,0.1-0.6c0-0.2,0-0.4-0.1-0.6 c-0.1-0.1-0.2-0.3-0.4-0.3c-0.2-0.1-0.3-0.1-0.5-0.2c-0.2,0-0.4,0-0.6,0h-1v2.2H83.4z"></path> <path d="M88.7,25.5h2.2l2,5.5h0l2-5.5h2.2v7.8h-1.4v-6.3h0l-2.4,6.3h-1l-2.3-6.3h0v6.3h-1.3V25.5z"></path> <path d="M99.8,25.5h5.2v1.2h-3.8v2h3.6v1.2h-3.6v2.2h4v1.2h-5.4V25.5z"></path> <path d="M107.5,25.5h1.8l3.6,5.8h0v-5.8h1.4v7.8h-1.8l-3.7-6h0v6h-1.4V25.5z"></path> <path d="M118.7,26.8h-2.4v-1.2h6.2v1.2h-2.4v6.6h-1.4V26.8z"></path> </g> </svg>