<svg class="Honda_Marine_SVG" viewBox="0 0 120 55" xmlns="http://www.w3.org/2000/svg"> <defs> </defs> <g> <path d="M13.5,1.9l1.5.2a.82.82,0,0,1,.7,1h0V4.9H8.9V3.1a.82.82,0,0,1,.7 -1h0l1.5-.2V.4H2.2V1.9l1.5.2a.82.82,0,0,1,.7,1h0V8.9a.82.82,0,0,1 -.7,1h0l-1.5.2v1.5h8.9V10.1L9.6,9.9a.82.82,0,0,1-.7 -1h0V7.1h6.8V8.9a.82.82,0,0,1-.7,1h0l-1.5.2v1.5h8.9V10.1l-1.5 -.2a.82.82,0,0,1-.7-1h0V3.1a.82.82,0,0,1,.7-1h0l1.5 -.2V.4H13.5ZM72.5.4H61.6V1.9l1.3.1a.86.86,0,0,1,.8.8V8.9a.82.82,0,0, 1-.7,1h0l-1.5.2v1.5H72.6c4,0,7.2-1.6,7.2-5.6S76.5.4,72.5.4Zm-.8, 9.1H68v-7h3.7c2.2,0,2.9,1.1,2.9,3.5S73.9,9.5,71.7,9.5Zm26.7.5a1.44, 1.44,0,0,1-1.1-.9L92.2,1.2A1.09,1.09,0,0,0,91,.5H82.6V2l2,.2a.75.75, 0,0,1,.5.7.35.35,0,0,1-.1.2L81.2,9.3a.87.87,0,0,1-.8.6l -1.5.2v1.5H86V10.1L84.8,10c-.5-.1-.8-.4-.5-.9l.6-.9h6.8l.5.8c.4.7 -.1,1-.6,1l-1.2.1v1.5H100V10.1ZM86,6.2l2.1-3.5,2.2,3.5ZM53.7, 1.9l1.5.2a.82.82,0,0,1,.7,1h0V8.7L50,.9A1.17,1.17,0,0,0, 48.9.4H41.3V1.9l1.5.2a.78.78,0,0,1,.7.9V8.9a.82.82,0,0,1-.7,1h0l -1.5.2v1.5h7.1V10.1l-1.5-.2a.82.82,0,0,1-.7-1h0V3.3l5.9,7.9a1,1,0,0, 0,1.1.5h5.4V3.2a.82.82,0,0,1,.7-1h.1L60.9,2V.5H53.8l-.1,1.4ZM31.8,0c -7.2,0-9.1,3.2-9.1,6s1.9,6,9.1,6,9.1-3.2,9.1-6S39,0,31.8,0Zm0, 9.9C29,9.9,27.9,8.7,27.9,6s1.2-3.9,3.9-3.9S35.7,3.3,35.7,6,34.6,9.9, 31.8,9.9ZM51,16.1l51-.9v-.5l-51-.9-51,1v.5ZM39.2,23.7c0-3.6-1.8-5.3 -5.4-5.3H28.2c-3.6,0-5.4,1.7-5.4,5.3V29h4.3V23.3c0-1.9.9-2.8,2.8 -2.8H32c1.9,0,2.8.9,2.8,2.8v.4H28.1v2.1h6.7V29h4.3l.1-5.3Zm42.1,0c0 -3.6-1.8-5.3-5.4-5.3H65.8V29h4.3V20.5h4.1c1.9,0,2.8.9,2.8, 2.8V29h4.3V23.7ZM7.7,20.5V29H3.4V18.4H15.3c3.6,0,5.4,1.7,5.4, 5.3V29H16.4V23.3c0-1.9-.9-2.8-2.8-2.8Zm2.6.4V29h3.5V22Zm44.1, 4.7a3.62,3.62,0,0,0,2.9-3.5c0-2-1.7-3.7-4.4 -3.7H41.3V29h4.3V20.5h5.1c1.5,0,2.2.7,2.2,1.6s-.7,1.6-2.2, 1.6H46.9L51.6,29h5.8l-3-3.4m33.3,1.3H98.6V29H83.4V23.7c0-3.6,1.8 -5.3,5.4-5.3h9.8v2.1H90.5c-1.9,0-2.8.9-2.8,2.8Zm1.1 -4.3v2.1h8.8V22.6ZM59.2,18.4v3.8l4.6-3.8Zm0,5.2V29h4.3V20Z"></path> </g> </svg>