<svg class="Honda_Automotive_SVG" style="fill: $color-white-0" viewBox="0 0 110 50" xmlns="http://www.w3.org/2000/svg">
    <defs></defs>
    <g>
    <path d="M1566.75,5032.71v-1.6h1.69l-0.65-1.14h-4.47l-0.64,1.14h1.67v1.6h-5.51v-1.6h1.66l2.91-4.83h-2.02v-1.62h7.02l3.94,6.45H1574v1.6h-7.25Zm-1.2-6.72-1.39,2.47h2.78Zm-11.22,6.72h-8.72v-1.61h1.67v-4.82h-1.67v-1.61h8.72c2.04,0,4.44.77,4.44,3.84C1558.77,5031.85,1556.57,5032.71,1554.33,5032.71Zm-1.27-6.43h-2.4v4.82h2.37a2.148,2.148,0,0,0,2.17-2.41A2.176,2.176,0,0,0,1553.06,5026.28Zm-3.87-7.39c-5.92.61-18.19,1.06-24.13,0-6.14-1.1-6.86-3.98-7.82-8.88a125.719,125.719,0,0,1-.83-13.8s-0.59-7.23,6.47-8.45a151.446,151.446,0,0,1,26.21-.35s7.7,0.41,8.18,6.62a83.971,83.971,0,0,1-.65,16.36C1556.2,5012.97,1555.1,5018.28,1549.19,5018.89Zm6.19-24.46c-0.44-5.64-7.41-5.79-7.41-5.79a136.7,136.7,0,0,0-23.8.32c-6.42,1.11-5.9,7.9-5.9,7.9a119.079,119.079,0,0,0,.76,12.77c0.87,4.46,1.4,6.75,6.95,7.9s17.09,0.59,22.46.04,6-5.24,6.38-7.59A83.753,83.753,0,0,0,1555.38,4994.43Zm-12.16,22.72s-1.05-3.68-1.62-5.44a3.148,3.148,0,0,0-2.84-2.04,16.736,16.736,0,0,0-4.28.08c-2.37.4-3.27,4.8-3.27,4.8l-0.69,2.64-4.11-.25-1.88-27.02,2.8-.21s1.86,7.71,3.04,12.7,4.83,4.9,4.83,4.9l3.32-.06c4.26,0.02,5.68-7.6,5.68-7.6l2.17-9.88,2.9,0.15-1.99,26.97Zm-20.75,7.25c1.6,0,6.57.19,6.57,4.29s-4.95,4.31-6.57,4.31-6.59-.18-6.59-4.31C1515.88,5024.63,1520.88,5024.4,1522.47,5024.4Zm0,6.99c1.58,0,2.84-.73,2.84-2.7,0-1.99-1.29-2.69-2.84-2.69-1.58,0-2.83.75-2.83,2.69C1519.64,5030.68,1520.92,5031.39,1522.47,5031.39Zm-13.98-.29h1.67v-1.64h-5.12v1.64h1.67v1.62H1500v-1.62h1.67v-4.82H1500v-1.62h6.71v1.62h-1.67v1.6h5.12v-1.6h-1.67v-1.62h6.7v1.62h-1.67v4.82h1.67v1.62h-6.7v-1.62Zm22.89-4.82h-1.66v-1.62h6.7l4.74,6.04v-4.42h-1.66v-1.62h5.35v1.62h-1.65v6.43h-5.05l-4.75-6.05v4.45h1.64v1.6h-5.32v-1.6h1.65Z" transform="translate(-1500 -4986.97)"></path>
</g>
</svg>