<svg class="Honda_Automotive_SVG" viewBox="0 0 90 52" xmlns="http://www.w3.org/2000/svg"> <defs> </defs> <g> <path d="M7.18,41.94l.9.11a.51.51,0,0,1,.46.56v1.11H4.36V42.65a.52.52,0,0,1, .42-.6h0l.91-.11V41H.3v.91l.9.11a.51.51,0,0,1,.46.56v3.54a.52.52,0, 0,1-.42.6h0l-.9.1v.92H5.72v-.92l-.91-.1a.52.52,0,0,1-.45 -.59h0V45.08H8.53v1.07a.52.52,0,0,1-.42.6h0l-.9.1v.92H12.6v-.92l-.91 -.1a.52.52,0,0,1-.45-.59h0v-3.5a.52.52,0,0,1,.42-.6h0l.91 -.11V41H7.18ZM43.33,41h-6.7v.91l.8.09a.47.47,0,0,1, .48.55v3.57a.53.53,0,0,1-.44.6h0l-.91.1v.92h6.78c2.42,0,4.41-1,4.41 -3.37S45.75,41,43.33,41m-.5,5.45H40.56V42.32h2.27c1.34,0,1.8.63,1.8, 2.08s-.46,2.08-1.8,2.08Zm16.31.28a.92.92,0,0,1-.7-.53l-3.12 -4.75A.76.76,0,0,0,54.6,41H49.46v.91l1.23.14a.35.35,0,0,1,.21.57l -2.3,3.74a.62.62,0,0,1-.48.36l-.91.1v.92h4.33v-.92l-.75-.07c-.32,0 -.49-.26-.33-.52l.35-.56H55l.31.47c.27.41-.07.58-.36.61l -.77.07v.92H60v-.92l-.86-.09m-7.6-2.25,1.28-2.07,1.36,2.07ZM31.79, 41.94l.91.11a.51.51,0,0,1,.46.56V46l-3.58-4.7a.69.69,0,0,0-.69 -.29H24.24v.91l.9.11a.51.51,0,0,1,.46.56v3.54a.52.52,0,0,1-.42.6h0l -.9.1v.92h4.33v-.92l-.91-.1a.52.52,0,0,1-.45-.57v-3.4l3.58, 4.7a.69.69,0,0,0,.69.29h3.29V42.65a.51.51,0,0,1,.41-.59h0l.91 -.11V41H31.79ZM18.41,40.8c-4.41,0-5.54,1.92-5.54,3.6S14,48,18.41, 48s5.54-1.92,5.54-3.6-1.14-3.6-5.54-3.6m0,5.92C16.7,46.72,16,46,16, 44.4s.71-2.32,2.42-2.32,2.41.71,2.41,2.32-.71,2.32-2.41,2.32Zm-2.36 -7-3.26-3,16.47-1.9,8,4.91H16ZM43.8,26.89,9.11,33.37l3,2.78,16 -2a.46.46,0,0,1-.3-.45.45.45,0,0,1,.41-.43l9.47-1.38a6.59,6.59,0,0, 0,1.79-.55,6.25,6.25,0,0,0,1.5-1c.21-.19.91-.9,1.36-1.4l.74-.84c.21 -.24.66-.78.84-1a.11.11,0,0,0-.11-.17Zm5.43-7.58L5.92,30.42l2.61, 2.41,13.33-2.54a.51.51,0,0,1-.35-.47.43.43,0,0,1,.36-.43L43.55, 25.2a5.42,5.42,0,0,0,1.79-.7,5.55,5.55,0,0,0,1.3-1.12c.28-.32.79-1, 1.17-1.48s.52-.74.71-1,.66-1,.86-1.39a.13.13,0,0,0-.05-.18.13.13,0, 0,0-.1,0ZM43.5,6.76C44.1,6.52,47,5.28,47.61,5l3.26-1.46c.78-.35,3.06 -1.42,3.4-1.58,1.6-.77,3.58-1.71,4-1.93a.16.16,0,0,1,.22.2,29.42, 29.42,0,0,1-1.19,3.19,20.67,20.67,0,0,1-1.08,2.22,7.39,7.39,0,0,1 -1.34,1.63,7,7,0,0,1-2.15,1.38l-2,.76c-.14,0-2.56,1-3.05,1.11L5, 25.54c-1,.35-2.17,1-2.17,2.3a2.88,2.88,0,0,0,1,1.91l10.79,10h -5a5.69,5.69,0,0,0-.43-1,4.42,4.42,0,0,0-.84-1.1c-.43-.43-.86-.87-1 -1L1.63,31A5.28,5.28,0,0,1,0,27.35C0,25.64.95,24,3.78,22.86Zm4.71, 5.72,1.95-.67,1.59-.58c.79-.3,1.54-.58,2.31-.91a.15.15,0,0,1,.2.19c -.09.21-.59,1.26-.72,1.52-.36.64-.67,1.23-1,1.78s-.78,1.21-1.06, 1.54a6.58,6.58,0,0,1-1.54,1.42,6.79,6.79,0,0,1-2,.88L16.48, 26.09a.44.44,0,0,0-.33.43.48.48,0,0,0,.32.44L5.31,29.86,4.4,29a1.49, 1.49,0,0,1-.48-1c0-.82.64-1.2,1.62-1.52Z"></path> </g> </svg>