<svg class="Honda_Racing_SVG" viewBox="0 0 875 125" xmlns="http://www.w3.org/2000/svg"> <defs> </defs> <g> <path d="M684.8,63l15.8-52.2h-21.4c-3.5-0.1-6.7,2.1-7.8,5.5L657.3, 63H684.8z"></path> <path d="M350.8,29.1c-6.9,0-14.4,2.9-16.6,9.9l-4.2,14c-2,6.7,5.5,9.9,11.2, 9.9h60l12.6-42.2c1.7-5.7-3.7-10-9-10l0,0h-47.1c-6.8,0-10,9.9-0.5, 9.9h29.1l-2.6,8.4H350.8z M376.6,53.1h-18.9l4.1-14h0h18.9L376.6,53.1z"></path> <path d="M532.8,29.1c-6.9,0-14.4,2.9-16.6,9.9l-4.2,14c-2,6.7,5.5,9.9,11.2, 9.9h60l12.6-42.2c1.7-5.7-3.7-10-9-10h-47.1c-6.8,0-10,9.9-0.5,9.9h29.1l -2.6,8.4H532.8z M558.6,53.1h-18.9h0l4.1-14h0h18.9h0L558.6,53.1z"></path> <path d="M603.6,63h41.8c8.1,0,10.2-9.9,1.5-9.9h-26.8l9.7-32.4h26.6c7.7,0, 10.9-9.9,1.1-9.9h-38.7c-6.9,0-14.5,3-16.7,10.1l-9.8,32.3C590.4,60,597.9, 63,603.6,63z"></path> <path d="M474.4,10h18.9l-5.2,17.8l-12.7,0l0,0l-2.2,9.8l4.6,25.4h30.4l-6.1 -25.5c6-0.7,11.8-3.7,13.7-9.8L521,10c2-6.7-5.4-9.8-11.2-9.8h-59.9l-19, 62.8h27.9L474.4,10z"></path> <path d="M671.2,86.3c3.2,0.5,9.4-0.1,12.9-0.1v0c2.2-2.5,5-4.8,7.5-7.1c0.5 -0.5,1.9-2.2,3.4-4h-20.6c-2.2,3-4.9,6.6-6.7,9.2C668.7,85.2,669.9,85.8, 671.2,86.3z"></path> <path d="M651.1,96c1.7,1.7,5.9,3.8,9.7,5.1l0,0c1.4-4.9,3.2-9.7,5.2-14.3c0.3 -0.8,0.7-1.6,1.2-2.3c-2-1.3-4-3.1-5.3-4c-1.9-1.5-3.5-3.3-4.8-5.3h -12.8c3.2,2.4,6.9,5.7,7.5,7c2.2,4.1-0.6,8.4-3.4,11.6C649.3,94.6,650.2, 95.4,651.1,96z"></path> <path d="M45.1,37.6h11.4l-7.6,25.3h27.5L95.3,0H74c-3.5-0.1-6.7,2.1-7.8,5.5l -6.3,20.9H48.2C40.6,26.3,38.1,37.6,45.1,37.6z"></path> <path d="M706.9,101.5c-3.5-0.3-4-0.3-7.4-0.5v0c-1,1.4-3.4,3.4-5.6,6.3c-2.3, 2.6-5.2,5.7-7.5,8.7h24.2c5.1-3.9,9.6-7.3,10.9-8.4c2.4-1.7,5.3-3.5,7.7 -5.3C721.8,102.5,714.3,102.2,706.9,101.5z"></path> <path d="M698.8,100.7c1.4-1.9,2.4-4.2,3.9-6.2c2-2.9,2.8-5.9,4.9-8.6c-11.5 -1.1-27.7,4.3-37.3,16.7h-4.5c-1.5,0-2.6-0.4-4.9-1.2c-1.9,6.2-7.2,10.7 -12.6,14.7h15.1c0.4-1.3,1-2.4,1.8-3.5c5.3-6.8,13.2-11.9,22-11.9C689.9, 100.6,696.2,100.5,698.8,100.7z"></path> <polygon points="708,85.3 708,85.3 708,85.3 "></polygon> <path d="M714.3,77.8c-2.2,2.4-4.3,4.9-6.3,7.5c4.6,0.4,10,0.9,14.3,2.2c6.5, 1.9,15.3,2.7,22.2,3.1c3.8-4.2,7.8-8,11.7-12.1c1.6-1.3,3.3-2.4,5.2-3.4h -44.9C715.5,76.3,714.6,77.4,714.3,77.8z"></path> <path d="M804.8,10.8c-5.8,0-15.2,3.2-17.1,9.9l-9.9,30.9c-2.2,7,1.6,11.5, 11.3,11.5h31.7l-1.9,6.2c-1.2,4-5.3,5.9-9.2,5.9h-23c-9.4,0-10.8,11-1.7, 11h43.6c6.7,0,14-4.4,16-11.1L864,10.8H804.8z M823.7,53h-18.8l10.6 -32.2h18.9L823.7,53z"></path> <polygon points="660.9,101.3 660.9,101.3 660.9,101.3 "></polygon> <path d="M260.2,63H320l19-63h-21.4l0,0c-3.5-0.1-6.7,2.1-7.8,5.5l-1.6,5.3h -32.9c-6.9,0-14.4,3-16.6,10.1L249,53.1C247,59.8,254.4,63,260.2, 63z M286.5,20.7h18.8h0l-9.7,32.4h-18.9L286.5,20.7z"></path> <path d="M769.4,10.8h-47.5c-6.9,0-13.3,2.9-15.5,9.9L693.4,63h26.7l12.8 -42.3h19L739.3,63h26.8l12.7-42.3C780.6,14.5,774.9,10.8,769.4,10.8z"></path> <path d="M640.5,104c9.3-8.9,2.8-10.1-1.4-12.7c-4.2-2.6-14.1-1.6-18.7,0.3c1.4 -0.9,3-2.8,4.6-4c1.3-1,6.6-7.6,9.3-12.4H0V116h603c0.5-1.5,1-2.9,1.5 -4.2c0.8-2.4,2-4.7,3.4-6.8c-3.4-2.1-10.5-2.7-15.6-4.5c-2.8-1-2.6-1.2-4.7 -1.9c1-1.6,2.1-2.6,2.9-3.7c1.8-2.9,6.2-7.1,8.7-10.8c1.5,0.2,2.9,0.6,4.3, 1c3.4,1.4,5.8,1.4,9.3,3.2c1.4,0.9,6,2.3,6.8,3.8c-2.9,1.9-5.5,4.3-7.5, 7.2c-1.3,1.8-2.4,3.8-3.2,6c6.6-0.2,12.8,0.4,16.3,2.6c2.6,2,3.8,4.1,3.4, 8.2H647l0,0c-2.8-2.7-5.4-5.8-7.5-9.1C639.3,106.7,640.8,104.1,640.5, 104z M391.4,110.6L391.4,110.6L391.4,110.6h-11.8V80.7h11.8V110.6z M436.3, 110.6L436.3,110.6L436.3,110.6h-11.8v-14h-30.4l2.4 -4.5h27.9V80.7h11.8V110.6z M485.1,101.1L485.1,101.1l-30.3,0l2.4 -4.5H479c4.8,0,8.3-2.7,8.3-6c0-3.2-3.5-5.7-8.3-5.7h-27.4v25.7h -11.8V80.7h45.9c7.6,0,14.2,4.6,13.9,10.2C499.2,96.6,492.7,101.1,485.1, 101.1z M537.5,110.6L537.5,110.6l-20.8,0l2.6-5.1h14c7.6,0,13.7-4.6,13.7 -10.3s-6.1-10.4-13.7-10.4h-19.7v25.8h-11.8V80.7h36c12.2,0,22.2,6.5,22.2, 14.5S549.8,110.6,537.5,110.6z"></path> <path d="M193.9,63l12.8-42.3h19L213,63h26.7l12.7-42.3c1.9-6.2-3.8-9.9-9.4 -9.9h-47.5c-6.9,0-13.3,2.9-15.5,9.9L167.2,63H193.9z"></path> <path d="M46.5,0H25.1c-3.5-0.1-6.7,2.1-7.8,5.5L0,62.9h27.5L46.5,0z"></path> <path d="M99.7,63h46.1c7,0,14.6-2.8,16.8-9.9l9.9-32.2c1.9-6.2-4.5-10.1-10 -10.1h-47.6c-6.9,0-14.4,3-16.5,10.1l-9.8,32.2C86.5,59.8,94,63,99.7, 63z M126,20.7L126,20.7h18.9h0l-9.7,32.4h-19L126,20.7z"></path> </g> </svg>