<svg class="Honda_Engines_SVG" viewBox="0 0 124 33.7" xmlns="http://www.w3.org/2000/svg"> <defs> </defs> <g> <path d="M24.7,2.2l1.5,0.2c0.7,0.1,0.7,0.6,0.7,1v1.7h-6.7V3.3c0-0.3,0.1-0.9,0.7-1l1.5-0.2V0.7h-8.7v1.5l1.5,0.2 c0.5,0,0.6,0.6,0.6,0.9V9c0,0.3-0.1,0.9-0.7,1l-1.5,0.2v1.5h8.7v-1.6l-1.5-0.2c-0.7-0.1-0.7-0.6-0.7-1V7.3h6.7V9 c0,0.3-0.1,0.9-0.7,1l-1.5,0.2v1.5h8.7v-1.6l-1.5-0.2c-0.7-0.1-0.7-0.6-0.7-1V3.3c0-0.3,0.1-0.9,0.7-1l1.5-0.2V0.7h-8.7v1.5H24.7z"></path> <path d="M83.1,0.7H72.3v1.5l1.3,0.1c0.5,0.1,0.8,0.3,0.8,0.9V9c0,0.3-0.1,0.9-0.7,1l-1.5,0.2v1.5h10.9 c3.9,0,7.1-1.6,7.1-5.5C90.2,2.3,87,0.7,83.1,0.7z M82.3,9.5h-3.7V2.8h3.7c2.2,0,2.9,1,2.9,3.4C85.2,8.5,84.4,9.5,82.3,9.5z"></path> <path d="M108.6,10c-0.7-0.1-0.9-0.5-1.1-0.9c-5-7.7-5-7.7-5-7.7c-0.4-0.6-0.6-0.7-1.2-0.7H93v1.5l2,0.2 c0.3,0,0.7,0.4,0.3,0.9l-3.7,6.1c-0.2,0.2-0.3,0.5-0.8,0.6l-1.5,0.2v1.5h7v-1.6L95.1,10c-0.5-0.1-0.8-0.4-0.5-0.8l0.5-0.9h6.7 l0.5,0.8c0.4,0.7-0.1,0.9-0.6,1l-1.2,0.1v1.5h9.5v-1.6L108.6,10z M96.3,6.3l2.1-3.4l2.2,3.4H96.3z"></path> <path d="M64.5,2.2L66,2.4c0.7,0.1,0.7,0.6,0.7,1v5.5l-5.8-7.6c-0.3-0.3-0.5-0.5-1.1-0.5c-0.4,0-7.5,0-7.5,0v1.5 l1.5,0.2c0.7,0.1,0.7,0.6,0.7,1v5.7c0,0.3-0.1,0.9-0.7,1l-1.5,0.2v1.5h7v-1.8L57.8,10c-0.7-0.1-0.7-0.6-0.7-1V3.5l5.8,7.6 c0.3,0.4,0.5,0.5,1.1,0.5h0.1c0.3,0,1.4,0,5.3,0V3.3c0-0.3,0.1-0.9,0.7-1l1.5-0.2V0.7h-7L64.5,2.2L64.5,2.2z"></path> <path d="M42.9,0.3c-7.1,0-8.9,3.1-8.9,5.8s1.8,5.8,8.9,5.8s8.9-3.1,8.9-5.8S50,0.3,42.9,0.3z M42.9,9.9 c-2.8,0-3.9-1.2-3.9-3.8s1.1-3.8,3.9-3.8c2.8,0,3.9,1.2,3.9,3.8C46.8,8.8,45.6,9.9,42.9,9.9z"></path> </g> <g> <path d="M35.1,25.4h5.2v1.2h-3.8v2h3.6v1.2h-3.6V32h4v1.2h-5.4V25.4z"></path> <path d="M42.9,25.4h1.8l3.6,5.8h0v-5.8h1.4v7.8H48l-3.7-6h0v6h-1.4V25.4z"></path> <path d="M59.4,32.8c-0.4,0.2-0.8,0.3-1.3,0.4c-0.5,0.1-1,0.2-1.6,0.2c-0.6,0-1.2-0.1-1.7-0.3c-0.5-0.2-1-0.5-1.3-0.8 c-0.4-0.4-0.7-0.8-0.9-1.3s-0.3-1.1-0.3-1.7c0-0.6,0.1-1.2,0.3-1.7s0.5-0.9,0.9-1.3c0.4-0.4,0.8-0.6,1.3-0.8 c0.5-0.2,1.1-0.3,1.7-0.3c0.6,0,1.2,0.1,1.7,0.3s0.9,0.4,1.2,0.7l-1,1c-0.2-0.2-0.5-0.4-0.8-0.6c-0.4-0.2-0.7-0.2-1.2-0.2 c-0.4,0-0.8,0.1-1.1,0.2c-0.3,0.1-0.6,0.3-0.9,0.6c-0.2,0.3-0.4,0.6-0.5,0.9c-0.1,0.3-0.2,0.7-0.2,1.1c0,0.4,0.1,0.8,0.2,1.1 c0.1,0.3,0.3,0.7,0.5,0.9s0.5,0.5,0.9,0.6c0.3,0.1,0.7,0.2,1.2,0.2c0.6,0,1.1-0.1,1.6-0.3v-2h-1.6v-1.1h3V32.8z"></path> <path d="M62.2,25.4h1.4v7.8h-1.4V25.4z"></path> <path d="M66.4,25.4h1.8l3.6,5.8h0v-5.8h1.4v7.8h-1.8l-3.7-6h0v6h-1.4V25.4z"></path> <path d="M76.1,25.4h5.2v1.2h-3.8v2H81v1.2h-3.6V32h4v1.2h-5.4V25.4z"></path> <path d="M87.9,27c-0.1-0.2-0.4-0.4-0.6-0.5c-0.3-0.1-0.5-0.2-0.8-0.2c-0.2,0-0.3,0-0.5,0.1c-0.2,0-0.3,0.1-0.4,0.2 c-0.1,0.1-0.2,0.2-0.3,0.3s-0.1,0.3-0.1,0.5c0,0.2,0,0.3,0.1,0.5c0.1,0.1,0.2,0.2,0.3,0.3c0.1,0.1,0.3,0.2,0.5,0.2 c0.2,0.1,0.4,0.1,0.6,0.2c0.2,0.1,0.5,0.2,0.8,0.3c0.3,0.1,0.5,0.2,0.7,0.4c0.2,0.2,0.4,0.4,0.5,0.6c0.1,0.3,0.2,0.6,0.2,1 c0,0.4-0.1,0.8-0.2,1.1c-0.2,0.3-0.4,0.6-0.6,0.8c-0.3,0.2-0.6,0.4-0.9,0.5s-0.7,0.2-1.1,0.2c-0.5,0-1-0.1-1.5-0.3 s-0.9-0.5-1.2-0.8l1-0.9c0.2,0.3,0.4,0.5,0.8,0.6c0.3,0.2,0.6,0.2,0.9,0.2c0.2,0,0.3,0,0.5-0.1c0.2,0,0.3-0.1,0.5-0.2 c0.1-0.1,0.2-0.2,0.3-0.4s0.1-0.3,0.1-0.5c0-0.2,0-0.4-0.1-0.5s-0.2-0.3-0.4-0.4c-0.2-0.1-0.4-0.2-0.6-0.3 c-0.2-0.1-0.5-0.2-0.7-0.2c-0.2-0.1-0.5-0.2-0.7-0.3s-0.4-0.2-0.6-0.4c-0.2-0.2-0.3-0.4-0.5-0.6s-0.2-0.6-0.2-0.9 c0-0.4,0.1-0.7,0.2-1c0.2-0.3,0.4-0.5,0.6-0.7c0.3-0.2,0.6-0.3,0.9-0.4c0.3-0.1,0.7-0.1,1-0.1c0.4,0,0.8,0.1,1.2,0.2 c0.4,0.1,0.8,0.3,1.1,0.6L87.9,27z"></path> </g> </svg>