<svg id="Header_Honda_Logo" viewBox="0 0 313 206"><path d="M47.6 165.2l4.4.5c2 .2 2.2 1.9 2.2 2.9v5.2H33.9v-5.2c0-1.1.2-2.7 2.2-2.9l4.4-.5v-4.5H14.2v4.5l4.4.5c2 .2 2.2 1.9 2.2 2.9v17.1c0 1.1-.2 2.7-2.2 2.9l-4.4.5v4.4h26.3v-4.4l-4.4-.5c-2-.2-2.2-1.9-2.2-2.9v-5.2h20.3v5.2c0 1.1-.2 2.7-2.2 2.9l-4.4.5v4.4H74v-4.4l-4.4-.5c-2-.2-2.2-1.9-2.2-2.9v-17.1c0-1.1.2-2.7 2.2-2.9l4.4-.5v-4.5H47.7v4.5h-.1zM223.3 160.8h-32.5v4.5l3.9.4c1.4.2 2.3.8 2.3 2.7v17.4c0 1.1-.2 2.7-2.2 2.9l-4.4.5v4.4h32.9c11.8 0 21.5-4.7 21.5-16.4s-9.7-16.4-21.5-16.4zm-2.4 26.6h-11v-20.3h11c6.5 0 8.7 3.1 8.7 10.1 0 7.1-2.2 10.2-8.7 10.2z"></path><path d="M300.1 188.7c-2.1-.2-2.7-1.6-3.4-2.6L281.6 163c-1.1-1.7-1.9-2.2-3.5-2.2h-25v4.5l6 .7c.8.1 2 1.2 1 2.8L248.9 187c-.5.7-1 1.6-2.3 1.8l-4.5.5v4.4h21v-4.5l-3.6-.4c-1.5-.2-2.4-1.2-1.6-2.5l1.7-2.7h20.2l1.5 2.3c1.3 2-.3 2.8-1.8 3l-3.7.4v4.5h28.5v-4.4l-4.2-.7zm-36.9-10.9l6.2-10.1 6.6 10.1h-12.8zM167.2 165.2l4.4.5c2 .2 2.2 1.9 2.2 2.9V185l-17.4-22.9c-.8-1.1-1.5-1.4-3.3-1.4h-22.6v4.5l4.4.5c2 .2 2.2 1.9 2.2 2.9v17.1c0 1.1-.2 2.7-2.2 2.9l-4.4.5v4.4h21v-4.4l-4.4-.5c-2-.2-2.2-1.9-2.2-2.9v-16.4l17.4 22.9c.8 1.1 1.5 1.4 3.3 1.4h16v-25c0-1.1.2-2.7 2.2-2.9l4.4-.5v-4.5h-21v4.5zM102.2 159.7c-21.4 0-26.9 9.4-26.9 17.6s5.5 17.6 26.9 17.6 26.9-9.4 26.9-17.6c0-8.3-5.5-17.6-26.9-17.6zm0 28.8c-8.3 0-11.7-3.5-11.7-11.3s3.5-11.3 11.7-11.3c8.3 0 11.7 3.5 11.7 11.3 0 7.8-3.4 11.3-11.7 11.3z"></path><g><path d="M195.7 22.1c-3.6 16.2-5.1 23.6-8 35.3-2.8 11.2-5 21.7-8.8 26.7-3.8 5.1-9 6.2-12.5 6.6-1.8.2-3.1.3-7 .3s-5.2-.1-7-.3c-3.5-.4-8.6-1.5-12.5-6.6-3.8-5.1-6-15.5-8.8-26.7-2.9-11.7-4.4-19.1-8-35.3 0 0-3.6.1-5.2.3-2.2.2-3.9.3-5.7.6 0 0 2.1 33.2 3 47.3 1 14.8 2.7 39.8 4.4 58.6 0 0 3 .5 8.1.8 5.3.3 7.7.3 7.7.3 2.2-8.3 4.9-19.8 7.9-24.7 2.5-4 6.3-4.4 8.5-4.7 3.4-.5 6.3-.5 7.6-.5 1.3 0 4.2 0 7.6.5 2.2.3 6 .7 8.5 4.7 3.1 4.9 5.8 16.4 7.9 24.7 0 0 2.4 0 7.7-.3 5-.3 8.1-.8 8.1-.8 1.6-18.8 3.4-43.8 4.4-58.6.9-14.1 3-47.3 3-47.3-1.8-.2-3.5-.4-5.7-.6-1.6-.2-5.2-.3-5.2-.3z"></path><path d="M237.6 41.7c-2.1-21.1-16.2-25.6-28.6-27.6-6.2-1-17.3-1.9-24.4-2.2-6.2-.4-20.8-.6-25.2-.6-4.3 0-19 .2-25.2.6-7.1.3-18.2 1.2-24.4 2.2-12.4 2.1-26.4 6.5-28.6 27.6-.6 5.8-.8 13.3-.6 21.3.2 13.4 1.3 22.4 2 28.7.4 4.3 2.2 17.2 4.5 23.9 3.2 9.2 6 11.8 9.4 14.6 6.1 5 16.2 6.5 18.3 6.9 11.4 2 34.4 2.4 44.6 2.4s33.2-.4 44.6-2.4c2.1-.4 12.2-1.9 18.3-6.9 3.3-2.7 6.2-5.4 9.4-14.6 2.3-6.7 4.1-19.6 4.5-23.9.7-6.3 1.8-15.3 2-28.7.2-8.1 0-15.6-.6-21.3zm-7.7 35.4c-1.2 16.9-2.7 27-4.9 34.3-1.9 6.4-4.2 10.7-7.6 13.8-5.7 5.1-13.5 6.3-18.1 6.9-9.9 1.5-26.7 2-39.8 2s-29.9-.5-39.8-2c-4.6-.7-12.4-1.8-18.1-6.9-3.4-3.1-5.7-7.4-7.6-13.8-2.1-7.3-3.6-17.4-4.9-34.3-.8-10.2-.6-26.6.5-35.5 1.7-13.2 8.2-19.8 22.3-22.3 6.6-1.2 15.4-2 23.7-2.4 6.7-.5 17.7-.7 23.9-.6 6.2-.1 17.2.2 23.9.6 8.4.4 17.2 1.2 23.7 2.4 14 2.5 20.6 9.1 22.3 22.3 1.1 8.9 1.2 25.4.5 35.5z"></path></g></svg>